# xmcd
#
# Track frame offsets: 
#        150
#        19079
#        32801
#        47293
#        64826
#        81258
#        96833
#        115066
#        132017
#        147658
#        166486
#
# Disc length: 2680 seconds
#
# Revision: 4
# Processed by: cddbd v1.5.1PL0 Copyright (c) Steve Scherf et al.
# Submitted via: ExactAudioCopy v0.95a4
#
DISCID=900a760b
DTITLE=Sanseverino - Le Tango des gens
DYEAR=2002
DGENRE=Blues
TTITLE0=Frida
TTITLE1=Mal ô Mains
TTITLE2=Les Embouteillages
TTITLE3=Les Films De Guerre
TTITLE4=Swing Du Nul
TTITLE5=Le Tango De L'ennui
TTITLE6=André
TTITLE7=Le Tango Des Gens
TTITLE8=Rouge
TTITLE9=Maigrir
TTITLE10=Le Mer
EXTD=http://www.sonymusic.fr/sanseverino/\nEurope - 501708 2
EXTT0=
EXTT1=
EXTT2=
EXTT3=
EXTT4=
EXTT5=
EXTT6=
EXTT7=
EXTT8=
EXTT9=
EXTT10=
PLAYORDER=
